<svg width="1440" height="520" viewBox="0 0 1440 520" fill="none" xmlns="http://www.w3.org/2000/svg">
  <rect width="1440" height="520" fill="#020617"/>
  <path d="M0 420C175 326 326 301 482 345C642 390 752 442 917 386C1084 329 1213 200 1440 244V520H0V420Z" fill="#0F172A"/>
  <path d="M126 354C278 271 421 250 568 293C736 343 845 401 1011 332C1152 273 1270 170 1396 182" stroke="#22D3EE" stroke-width="4" stroke-linecap="round"/>
  <path d="M126 354C278 271 421 250 568 293C736 343 845 401 1011 332C1152 273 1270 170 1396 182" stroke="#4ADE80" stroke-width="12" stroke-linecap="round" stroke-opacity="0.18"/>
  <circle cx="126" cy="354" r="18" fill="#4ADE80"/>
  <circle cx="126" cy="354" r="34" stroke="#4ADE80" stroke-width="3" stroke-opacity="0.45"/>
  <circle cx="1011" cy="332" r="12" fill="#22D3EE"/>
  <g opacity="0.55">
    <line x1="96" y1="96" x2="1344" y2="96" stroke="#1E293B"/>
    <line x1="96" y1="176" x2="1344" y2="176" stroke="#1E293B"/>
    <line x1="96" y1="256" x2="1344" y2="256" stroke="#1E293B"/>
    <line x1="96" y1="336" x2="1344" y2="336" stroke="#1E293B"/>
    <line x1="96" y1="416" x2="1344" y2="416" stroke="#1E293B"/>
  </g>
  <text x="96" y="150" fill="#F8FAFC" font-family="Inter, Arial, sans-serif" font-size="78" font-weight="800">BarPath AI</text>
  <text x="100" y="206" fill="#94A3B8" font-family="Inter, Arial, sans-serif" font-size="26">Computer vision biomechanics for powerlifting video analysis</text>
  <rect x="101" y="242" width="252" height="44" rx="6" fill="#111827" stroke="#334155"/>
  <text x="124" y="271" fill="#4ADE80" font-family="Inter, Arial, sans-serif" font-size="17" font-weight="700">TRACK • COUNT • EXPORT</text>
</svg>
